<?xml version="1.0" standalone="no"?>
<!DOCTYPE svg PUBLIC "-//W3C//DTD SVG 20010904//EN"
 "http://www.w3.org/TR/2001/REC-SVG-20010904/DTD/svg10.dtd">
<svg version="1.0" xmlns="http://www.w3.org/2000/svg"
 width="1264.000000pt" height="1280.000000pt" viewBox="0 0 1264.000000 1280.000000"
 preserveAspectRatio="xMidYMid meet">
<g transform="translate(0.000000,1280.000000) scale(0.100000,-0.100000)"
fill="#000000" stroke="none">
<path d="M2420 12779 c-377 -69 -580 -247 -704 -620 -48 -144 -67 -257 -73
-441 -4 -98 -10 -161 -17 -167 -6 -5 -55 -27 -110 -50 -269 -111 -550 -306
-786 -543 -141 -143 -202 -231 -235 -346 -14 -48 -41 -134 -60 -192 -54 -164
-74 -263 -86 -425 -15 -200 -6 -346 27 -443 34 -102 88 -217 118 -253 14 -16
33 -54 42 -83 17 -54 17 -55 -9 -133 -56 -171 -90 -398 -107 -716 -9 -174 -37
-513 -44 -533 -3 -6 -17 -14 -33 -17 -15 -3 -36 -12 -45 -19 -23 -18 -38 -117
-38 -259 0 -134 -17 -196 -74 -276 -65 -91 -138 -263 -177 -422 -5 -17 70 -34
111 -26 14 3 30 2 36 -3 6 -4 19 -74 28 -157 22 -188 65 -458 116 -730 22
-115 46 -246 54 -291 19 -112 56 -185 132 -259 l63 -61 -34 -108 c-70 -219
-131 -538 -141 -734 -3 -59 -14 -186 -26 -282 -15 -131 -19 -204 -14 -290 10
-203 47 -434 102 -654 19 -74 23 -112 19 -150 -7 -56 9 -109 82 -270 34 -75
37 -92 49 -236 7 -86 20 -183 30 -215 16 -57 16 -66 -2 -190 -22 -160 -22
-316 0 -410 10 -38 21 -130 25 -202 9 -150 17 -168 87 -213 131 -83 356 -58
444 48 l30 37 -1 146 c0 120 3 163 22 238 21 85 25 94 66 127 31 26 43 43 43
62 0 15 9 35 20 45 18 15 20 29 20 141 0 233 -44 384 -136 465 -43 38 -45 42
-59 128 -15 94 -15 99 -11 298 3 103 8 143 25 190 54 150 82 498 61 765 -7 92
-10 178 -7 192 4 13 20 31 37 41 70 42 110 150 114 309 3 99 13 128 44 128 30
0 121 109 161 194 79 166 86 290 27 481 -21 66 -56 164 -78 218 -38 93 -39 99
-24 122 9 14 22 25 29 25 7 0 25 -51 44 -125 77 -297 206 -568 381 -799 69
-93 77 -108 108 -215 25 -84 34 -136 34 -190 0 -67 4 -80 42 -152 l43 -78 -24
-22 c-26 -25 -25 -50 7 -139 25 -68 52 -217 52 -289 l0 -53 33 7 c61 13 62 13
65 -31 2 -23 -10 -120 -27 -215 -38 -223 -68 -435 -81 -572 -5 -59 -20 -158
-32 -220 -19 -95 -23 -143 -22 -317 0 -181 3 -214 23 -285 12 -44 24 -109 25
-145 2 -36 9 -157 17 -268 14 -231 13 -237 -52 -390 l-39 -93 25 -52 c23 -49
24 -63 24 -212 0 -132 -3 -173 -21 -238 -20 -72 -20 -85 -10 -167 7 -50 23
-125 37 -167 15 -50 27 -122 33 -201 6 -68 12 -126 15 -128 3 -3 22 -1 43 5
51 13 351 41 534 49 l145 7 3 70 c2 39 7 74 11 78 10 10 155 -36 198 -63 26
-15 33 -27 33 -50 0 -29 2 -30 45 -30 31 0 47 5 54 18 10 16 12 16 25 0 7 -10
22 -18 33 -18 30 0 112 57 118 82 3 13 4 84 2 158 -2 117 -5 140 -25 177 -36
69 -118 118 -235 143 -49 10 -61 17 -102 66 -26 30 -64 63 -85 74 -25 13 -42
30 -49 52 -7 18 -22 49 -36 69 -19 29 -31 37 -65 42 -55 7 -69 21 -51 50 23
36 30 88 20 139 -9 42 -8 54 10 91 12 24 21 57 21 74 0 17 9 42 20 56 30 38
49 89 70 187 10 49 35 127 54 174 20 48 36 103 36 124 0 28 22 75 91 197 124
220 157 290 173 367 13 61 12 76 -6 165 -23 117 -21 223 10 483 32 258 52 498
52 606 0 82 -4 106 -29 168 -28 70 -29 74 -15 126 18 70 18 188 1 209 -10 11
-17 82 -26 241 -11 212 -28 407 -51 580 -15 116 -36 329 -75 755 -40 437 -69
658 -122 915 -44 211 -49 248 -35 262 8 8 20 2 41 -21 18 -19 35 -29 42 -25
26 16 139 310 139 363 0 48 -87 151 -128 151 -13 0 -63 26 -111 58 -48 32
-133 82 -189 112 l-101 55 -1 73 c0 62 2 72 18 72 10 0 27 -6 38 -14 31 -22
190 -86 213 -86 15 0 23 10 30 38 34 125 61 318 61 432 0 34 11 105 24 158 52
204 126 629 142 814 6 71 5 80 -19 120 -14 24 -52 70 -86 103 l-61 60 66 105
c36 58 79 133 96 168 26 53 41 69 97 107 36 24 86 64 111 89 49 51 68 56 96
25 31 -34 164 -142 230 -187 62 -41 214 -122 231 -122 5 0 27 -15 49 -34 50
-42 129 -82 191 -97 121 -27 331 -4 441 49 68 33 137 107 152 163 19 70 7 390
-20 514 -27 126 -60 182 -165 284 -101 97 -219 175 -365 241 -63 29 -189 90
-280 135 l-166 83 -12 87 c-19 127 -44 186 -112 258 -54 58 -182 145 -237 162
-13 3 -23 12 -24 18 0 7 0 100 1 207 3 449 -79 750 -258 943 -98 105 -234 169
-447 212 -147 29 -211 30 -355 4z"/>
<path d="M9732 11670 c-86 -13 -189 -50 -251 -90 -123 -80 -251 -221 -316
-350 -52 -103 -66 -162 -72 -310 -5 -114 -10 -144 -30 -190 -32 -72 -41 -165
-20 -207 17 -32 70 -63 106 -63 12 0 47 9 78 20 66 23 102 25 108 8 57 -182
101 -339 96 -346 -17 -26 -229 -145 -316 -177 -244 -91 -351 -170 -522 -387
-168 -212 -375 -544 -433 -696 -55 -141 -119 -351 -186 -605 -31 -116 -64
-233 -75 -261 -37 -96 -34 -284 7 -509 24 -134 46 -339 37 -347 -4 -5 -69 -21
-143 -35 -220 -44 -303 -65 -322 -82 -16 -14 -24 -9 -115 72 -54 49 -111 96
-128 106 -36 23 -74 24 -81 5 -3 -8 6 -85 21 -171 14 -86 23 -165 20 -176 -4
-11 -21 -22 -43 -27 -94 -23 -673 -112 -722 -111 -62 1 -103 -5 -140 -19 -14
-5 -51 -12 -82 -16 -45 -6 -58 -11 -58 -24 1 -19 17 -92 22 -97 1 -2 34 3 73
10 38 7 72 12 76 9 12 -7 122 17 134 30 13 13 722 133 731 124 3 -4 0 -15 -8
-27 -17 -27 -5 -38 55 -46 l47 -7 0 46 c0 54 10 62 100 72 53 6 65 4 75 -10 7
-9 29 -27 50 -41 l37 -26 233 36 232 37 54 -55 c60 -59 151 -108 237 -126 108
-23 104 -25 192 112 43 67 85 131 92 141 12 16 61 26 294 62 276 43 334 50
334 38 0 -3 -22 -34 -48 -68 -27 -33 -58 -77 -69 -96 -48 -80 -82 -227 -103
-451 -7 -78 -18 -130 -31 -155 -33 -66 -26 -95 34 -150 29 -27 56 -54 60 -61
13 -21 -117 -325 -189 -443 -47 -78 -55 -125 -44 -261 11 -136 41 -259 75
-311 25 -37 25 -40 25 -252 0 -238 10 -314 75 -551 19 -70 35 -132 35 -139 0
-6 -30 -38 -66 -70 -106 -95 -165 -201 -179 -322 -6 -57 -5 -63 21 -93 15 -18
68 -65 118 -103 70 -54 97 -82 117 -122 37 -70 110 -136 200 -179 102 -48 143
-103 189 -257 13 -41 32 -103 42 -138 26 -83 105 -200 171 -252 90 -73 230
-130 314 -130 29 0 85 -34 199 -121 49 -37 51 -42 57 -97 6 -56 37 -157 78
-258 l22 -51 -21 -104 c-45 -219 -56 -726 -19 -842 33 -105 153 -216 272 -253
l54 -17 63 31 c170 85 279 240 342 491 48 190 45 323 -11 455 -24 57 -25 72
-27 239 -1 196 1 202 58 186 58 -17 66 -13 96 54 84 186 90 389 15 545 -37 79
-88 126 -181 169 -51 24 -72 28 -154 28 l-95 1 -3 28 c-5 39 13 57 44 45 14
-5 34 -9 45 -9 23 0 23 -22 -7 460 -32 522 -44 614 -87 693 -12 22 -28 51 -36
65 -25 46 -2 89 95 171 102 87 203 203 249 286 72 128 267 919 321 1300 10 66
21 124 24 128 4 5 55 4 114 -2 148 -15 292 -1 366 36 47 24 59 36 84 87 l30
58 -3 347 c-1 190 -6 387 -12 436 -5 50 -11 99 -12 110 -2 15 12 27 57 49 l59
28 161 -27 c89 -15 197 -29 241 -32 72 -5 83 -3 108 17 25 20 27 27 27 88 -1
37 -6 113 -13 170 l-13 104 32 50 c48 74 67 174 59 306 -10 174 -33 333 -65
457 -113 439 -439 968 -758 1228 -69 57 -267 171 -522 302 -144 74 -145 75
-177 132 -17 32 -42 68 -55 80 -26 24 -117 43 -209 43 -69 0 -102 15 -236 103
-92 61 -256 147 -281 147 -5 0 -15 6 -21 14 -10 12 -7 23 15 57 15 24 35 66
45 94 l18 50 43 -2 c24 -2 81 -14 128 -27 47 -14 89 -21 93 -17 4 4 11 33 14
63 7 66 -12 109 -57 128 -36 15 -35 12 -49 205 -11 162 -34 268 -81 371 -74
165 -219 310 -377 380 -105 47 -267 70 -371 54z m1736 -3211 c7 -24 16 -93 19
-154 5 -100 8 -116 40 -176 19 -37 54 -90 79 -119 76 -89 73 -121 -23 -200
-120 -99 -166 -130 -195 -130 l-28 0 0 93 c0 153 43 619 67 715 8 34 26 21 41
-29z m-2378 -381 c-43 -73 -77 -149 -85 -190 -7 -36 24 -154 95 -362 25 -76
38 -136 28 -136 -2 0 -70 -13 -153 -30 -82 -16 -153 -26 -156 -22 -4 4 1 39
11 77 22 82 24 139 9 200 -11 42 -9 48 19 92 29 45 82 185 82 216 0 21 72 128
114 170 56 57 75 49 36 -15z m-1730 -989 c42 -35 60 -57 60 -73 0 -28 -5 -30
-104 -47 -88 -15 -100 -9 -111 53 -6 30 -4 39 9 44 10 4 16 18 16 40 0 38 24
58 52 43 10 -5 45 -32 78 -60z m47 -164 c8 -23 3 -25 -71 -32 -44 -4 -66 -2
-66 5 0 15 18 25 60 33 57 11 70 10 77 -6z"/>
</g>
</svg>
